<?xml version="1.0" encoding="UTF-8"?>
<svg id="Calque_1" data-name="Calque 1" xmlns="http://www.w3.org/2000/svg" xmlns:xlink="http://www.w3.org/1999/xlink" viewBox="0 0 72 72">
  <defs>
    <style>
      .cls-1 {
        fill: #696969;
        opacity: 0;
      }

      .cls-1, .cls-2, .cls-3 {
        stroke-width: 0px;
      }

      .cls-2 {
        fill: #0b64f0;
      }

      .cls-3 {
        fill: #fff;
      }
    </style>
    <symbol id="Nouveau_symbole_115" data-name="Nouveau symbole 115" viewBox="0 0 72 72">
      <g id="Nouveau_symbole_11" data-name="Nouveau symbole 11">
        <rect class="cls-1" width="72" height="72"/>
        <g>
          <path class="cls-2" d="m37.34,58.41c-1.92,0-3.48-1.56-3.48-3.47v-8.47H11.81c-1.93,0-3.51-1.57-3.51-3.51v-13.92c0-1.93,1.57-3.51,3.51-3.51h22.05v-8.47c0-1.91,1.56-3.47,3.48-3.47.78,0,1.52.26,2.14.75l22.26,17.6c1.25.99,1.96,2.47,1.96,4.06s-.72,3.07-1.96,4.06l-22.26,17.6c-.62.49-1.36.75-2.14.75h0Z"/>
          <path class="cls-2" d="m37.34,14.59c.52,0,1.05.17,1.52.54l22.26,17.6c2.11,1.67,2.11,4.88,0,6.55l-22.26,17.6c-.47.37-1,.54-1.52.54-1.28,0-2.48-1.01-2.48-2.47v-9.47H11.81c-1.39,0-2.51-1.12-2.51-2.51v-13.92c0-1.39,1.12-2.51,2.51-2.51h23.05v-9.47c0-1.46,1.2-2.47,2.48-2.47m0-2c-2.47,0-4.48,2.01-4.48,4.47v7.47H11.81c-2.49,0-4.51,2.02-4.51,4.51v13.92c0,2.49,2.02,4.51,4.51,4.51h21.05v7.47c0,2.46,2.01,4.47,4.48,4.47,1,0,1.96-.33,2.76-.97l22.26-17.6c1.49-1.18,2.34-2.94,2.34-4.84,0-1.9-.85-3.66-2.34-4.84l-22.26-17.6c-.8-.63-1.75-.97-2.76-.97h0Z"/>
          <path class="cls-2" d="m37.86,42.47H14.09c-.99,0-1.79-.8-1.79-1.79v-9.35c0-.99.8-1.79,1.79-1.79h23.77v-8.95c0-.98,1.13-1.52,1.89-.92l19.5,15.42c.39.3.45.71.45.92s-.06.62-.45.92l-19.5,15.41c-.77.61-1.89.06-1.89-.92v-8.95Z"/>
          <path class="cls-3" d="m39.03,53.09c-.25,0-.5-.06-.73-.17-.58-.28-.94-.86-.94-1.5v-8.45H14.09c-1.26,0-2.29-1.03-2.29-2.29v-9.35c0-1.26,1.03-2.29,2.29-2.29h23.27v-8.45c0-.65.36-1.22.94-1.5.58-.28,1.26-.21,1.76.19l19.5,15.42c.55.43.64,1.01.64,1.31s-.08.88-.64,1.32l-19.5,15.41c-.3.24-.67.36-1.03.36ZM14.09,30.03c-.71,0-1.29.58-1.29,1.29v9.35c0,.71.58,1.29,1.29,1.29h24.27v9.45c0,.26.14.49.38.6.24.12.5.08.71-.08l19.5-15.41c.21-.17.26-.38.26-.53s-.04-.36-.25-.53l-19.5-15.42c-.21-.16-.47-.19-.71-.08-.24.11-.38.34-.38.6v9.45H14.09Z"/>
        </g>
      </g>
    </symbol>
  </defs>
  <use width="72" height="72" xlink:href="#Nouveau_symbole_115"/>
</svg>