<?xml version="1.0" encoding="UTF-8"?>
<svg id="Calque_1" data-name="Calque 1" xmlns="http://www.w3.org/2000/svg" xmlns:xlink="http://www.w3.org/1999/xlink" viewBox="0 0 72 72">
  <defs>
    <style>
      .cls-1 {
        fill: #6a6a6a;
        opacity: 0;
      }

      .cls-1, .cls-2, .cls-3 {
        stroke-width: 0px;
      }

      .cls-2 {
        fill: #010101;
      }

      .cls-3 {
        fill: #e72b54;
      }
    </style>
    <symbol id="Nouveau_symbole_28" data-name="Nouveau symbole 28" viewBox="0 0 72 72">
      <g>
        <rect class="cls-1" width="72" height="72"/>
        <g>
          <polygon class="cls-2" points="12.82 50.97 12.82 37.43 9.74 37.43 9.74 50.97 3.01 50.97 3.01 18.87 9.74 18.87 9.74 31.13 12.82 31.13 12.82 18.87 19.55 18.87 19.55 50.97 12.82 50.97"/>
          <path class="cls-2" d="m28.91,51.4c-5.2,0-8.18-3.12-8.18-8.57v-15.82c0-5.44,2.98-8.57,8.18-8.57s8.18,3.12,8.18,8.57v15.82c0,5.44-2.98,8.57-8.18,8.57Zm0-26.66c-.73,0-1.45.15-1.45,1.97v16.43c0,1.81.72,1.97,1.45,1.97s1.45-.15,1.45-1.97v-16.43c0-1.81-.72-1.97-1.45-1.97Z"/>
          <polygon class="cls-2" points="38.27 50.97 38.27 18.87 45 18.87 45 44.67 52.78 44.67 52.78 50.97 38.27 50.97"/>
          <path class="cls-2" d="m53.06,50.97V18.87h8.22c5.27,0,8.05,2.92,8.05,8.44v15.22c0,5.52-2.78,8.44-8.05,8.44h-8.22Zm8.14-6.3c.68,0,1.41-.15,1.41-1.92v-15.65c0-1.78-.73-1.92-1.41-1.92h-1.41v19.5h1.41Z"/>
        </g>
        <g>
          <path class="cls-3" d="m4.01,49.97v-30.1h4.73v12.25h5.07v-12.25h4.73v30.1h-4.73v-13.54h-5.07v13.54h-4.73Z"/>
          <path class="cls-3" d="m21.73,27.01c0-4.82,2.54-7.57,7.18-7.57s7.18,2.75,7.18,7.57v15.82c0,4.82-2.54,7.57-7.18,7.57s-7.18-2.75-7.18-7.57v-15.82Zm9.63-.3c0-1.98-.82-2.97-2.45-2.97s-2.45.99-2.45,2.97v16.43c0,1.98.82,2.97,2.45,2.97s2.45-.99,2.45-2.97v-16.43Z"/>
          <path class="cls-3" d="m39.27,49.97v-30.1h4.73v25.8h7.78v4.3h-12.51Z"/>
          <path class="cls-3" d="m54.06,49.97v-30.1h7.22c4.69,0,7.05,2.49,7.05,7.44v15.22c0,4.94-2.37,7.44-7.05,7.44h-7.22Zm4.73-4.3h2.41c1.59,0,2.41-.99,2.41-2.92v-15.65c0-1.94-.82-2.92-2.41-2.92h-2.41v21.5Z"/>
        </g>
      </g>
    </symbol>
  </defs>
  <use width="72" height="72" xlink:href="#Nouveau_symbole_28"/>
</svg>