<?xml version="1.0" encoding="UTF-8"?>
<svg id="Calque_1" data-name="Calque 1" xmlns="http://www.w3.org/2000/svg" xmlns:xlink="http://www.w3.org/1999/xlink" viewBox="0 0 72 72">
  <defs>
    <style>
      .cls-1 {
        fill: #6a6a6a;
        opacity: 0;
      }

      .cls-1, .cls-2, .cls-3 {
        stroke-width: 0px;
      }

      .cls-2 {
        fill: #021616;
      }

      .cls-3 {
        fill: #e72b53;
      }
    </style>
    <symbol id="Nouveau_symbole_114" data-name="Nouveau symbole 114" viewBox="0 0 72 72">
      <g>
        <rect class="cls-1" width="72" height="72"/>
        <g>
          <path class="cls-2" d="m22.94,60.98c-.88,0-1.74-.35-2.42-.99-.89-.84-1.76-1.7-2.62-2.57l-11.9-11.92c-.83-.83-1.28-1.94-1.26-3.11.02-1.19.51-2.29,1.39-3.12.83-.78,1.62-1.6,2.46-2.46.38-.39.76-.78,1.14-1.17.89-.9,3.45-3.47,3.45-3.47,2.09-2.1,4.18-4.19,6.28-6.28.37-.37.79-.78,1.27-1.17.63-.5,1.37-.76,2.15-.76.55,0,1.11.13,1.66.39.68.32,1.82,1.15,1.86,3.05.02.99.01,1.98,0,2.96,0,.69-.01,1.37,0,2.06h21.78c2.41,0,3.77,1.08,4.04,3.22l6.21-6.12-6.21-6.22c-.26,2.09-1.63,3.23-3.91,3.23h-16.18s0-7.11,0-7.11h13.07c0-.09.01-.18.02-.28.08-1.17.08-2.13,0-3.01-.07-.81-.04-1.57.1-2.27.32-1.65,1.78-2.85,3.48-2.85.83,0,1.63.3,2.26.83.5.43.95.88,1.38,1.32l1.68,1.68c2.09,2.08,4.18,4.15,6.26,6.24,1.31,1.31,2.61,2.62,3.9,3.94l1.6,1.62c1.89,1.91,1.89,3.85-.02,5.77-1.62,1.62-3.24,3.24-4.86,4.86-1.7,1.69-7.78,7.71-7.78,7.71-.64.63-1.27,1.27-1.9,1.9-.69.69-1.63,1.08-2.58,1.08h0c-.35,0-.69-.05-1.02-.15-1.5-.46-2.46-1.71-2.5-3.28-.03-.96-.03-1.91-.04-2.87,0-.57,0-2.13,0-2.13h-21.62c-.2,0-.41,0-.61-.02-2.56-.23-3.34-1.81-3.5-3.26-.77.77-4.36,4.37-4.36,4.37l-1.9,1.89.48.47c.83.82,1.67,1.64,2.49,2.46,1.09,1.09,2.18,2.18,3.27,3.27.21-1.85,1.8-3.29,3.71-3.29h16.46s0,7.01,0,7.01h-13.19c0,.83,0,1.65,0,2.48v1.81c0,.21-.01.43,0,.64.04,1.45-.69,2.68-1.97,3.29-.47.22-.97.34-1.48.34Z"/>
          <path class="cls-3" d="m64.44,28.05c-1.83-1.85-3.66-3.71-5.5-5.55-2.51-2.51-5.02-5.01-7.53-7.51-.55-.55-1.08-1.12-1.67-1.62-.87-.75-2.26-.25-2.48.88-.11.56-.12,1.16-.07,1.71.1,1.11.08,2.21,0,3.32-.14,2.11.26,2.14-.89,2.14-1.14,0-2.28,0-3.43,0h0s-8.77,0-8.77,0v3.11h8.77c1.81,0,3.61,0,5.42,0,1.43,0,1.94-.52,1.95-1.97,0-1.1,0-2.21,0-3.31,0-.2.03-.4.06-.68,3.7,3.7,7.3,7.32,10.93,10.96-3.63,3.59-7.28,7.18-10.99,10.84,0-1.32,0-2.6,0-3.88,0-1.59-.49-2.07-2.1-2.07-7.64,0-15.28,0-22.93,0-.97,0-.82-.02-.84-1.35-.03-1.88.04-3.76,0-5.64-.01-.56-.19-1.03-.72-1.29-.58-.27-1.18-.29-1.7.13-.39.31-.75.67-1.1,1.02-2.35,2.35-4.7,4.71-7.05,7.06-.89.89-1.78,1.79-2.67,2.68-1.22,1.23-2.39,2.5-3.65,3.68-.98.91-1.03,2.41-.08,3.35,3.88,3.89,7.76,7.78,11.65,11.67.94.94,1.87,1.88,2.83,2.78.47.44,1.07.59,1.67.31.57-.27.84-.77.83-1.42-.01-.38,0-.76,0-1.14,0-1.7.01-3.41,0-5.11,0-.55.2-.78.74-.73.12.01.24,0,.36,0,1.63,0,3.25,0,4.88,0h0s7.22,0,7.22,0v-3.01h-7.22c-2.41,0-4.82,0-7.24,0-.94,0-1.72.75-1.73,1.69-.01,1.16,0,2.33,0,3.49,0,.21-.03.41-.07.77-.27-.24-.44-.37-.59-.52-2-2-4-4-6-5.99-1.26-1.26-2.54-2.5-3.81-3.76-.57-.56-.57-.62,0-1.19.91-.9,1.82-1.81,2.73-2.71,1.83-1.83,3.65-3.66,5.48-5.48.69-.68,1.39-1.34,2.2-2.12.02.35.04.52.04.69,0,1.14-.01,2.29.02,3.43.04,1.22.51,1.69,1.72,1.8.22.02.44.01.66.01,2.21,0,4.41,0,6.62,0,5.32,0,10.63,0,15.95,0,.45,0,.81.36.81.81,0,1.1,0,2.21,0,3.31,0,.94.01,1.88.04,2.83.02.71.39,1.21,1.09,1.42.56.17,1.18-.01,1.6-.43.64-.64,1.27-1.28,1.91-1.91,2.59-2.57,5.19-5.14,7.77-7.71,1.62-1.61,3.24-3.23,4.85-4.85,1.14-1.15,1.14-1.82.02-2.95Z"/>
        </g>
      </g>
    </symbol>
  </defs>
  <use width="72" height="72" xlink:href="#Nouveau_symbole_114"/>
</svg>