<?xml version="1.0" encoding="UTF-8"?>
<svg id="Calque_1" data-name="Calque 1" xmlns="http://www.w3.org/2000/svg" xmlns:xlink="http://www.w3.org/1999/xlink" viewBox="0 0 72 72">
  <defs>
    <style>
      .cls-1 {
        fill: #6a6a6a;
        opacity: 0;
      }

      .cls-1, .cls-2, .cls-3 {
        stroke-width: 0px;
      }

      .cls-2 {
        fill: #010101;
      }

      .cls-3 {
        fill: #fff;
      }
    </style>
    <symbol id="Nouveau_symbole_95" data-name="Nouveau symbole 95" viewBox="0 0 72 72">
      <g>
        <rect class="cls-1" width="72" height="72"/>
        <g>
          <g>
            <path class="cls-3" d="m47.19,64.4c-.31,0-.6-.14-.79-.41l-1.38-1.91c-1.06-1.39-.95-2.87-.9-3.4-.01-.74-.02-1.48-.03-2.21-.16,0-.33,0-.49,0-.57,0-1.13.02-1.7.02-4.53,0-8.96-.01-13.41-.01H6.46c-.38,0-.73-.22-.89-.57-.16-.35-.1-.76.15-1.05l10.35-12,2.52-2.87c1.86-2.12,3.72-4.24,5.57-6.37,2.7-3.11,5.4-6.22,8.1-9.33h-2.41c-3.26,0-6.52,0-9.78.02h0c-.58,0-2.26,0-3.6-1.38-.89-.92-1.33-2.13-1.3-3.61.05-2.26.05-4.5,0-6.66-.04-1.51.4-2.74,1.3-3.66.9-.92,2.11-1.39,3.6-1.39,4.98.02,9.94.02,14.88.02h11.94c.19,0,.38-.02.57-.03l.6-.03h16.14c.32,0,.61.15.8.41.18.26.23.59.13.89l-1.35,3.89c-.42,1.22-1.13,1.97-1.47,2.33l-.1.11c-1.6,1.84-5.32,6.12-7.48,8.6,0,0,.08,0,.12,0,.39,0,.75.23.9.6.17.4.05.86-.28,1.13l-6.14,5.03.02.78c.01.51-.37.94-.87,1l-1.32.14-.25.29c.42-.14.86-.21,1.29-.21,1.1,0,2.13.43,2.97,1.23l13.47,10.76c1.23.94,1.87,2.11,1.88,3.48,0,.95-.29,2.33-1.78,3.51-3.33,2.64-6.64,5.28-9.95,7.94l-3.95,3.16c-.5.4-.97.58-1.14.65l-2.1.98c-.13.06-.27.09-.41.09Zm-3.09-24.63c0-.49,0-3.75,0-3.75-.6.69-1.19,1.37-1.78,2.06.04.29-.05.59-.26.81l-.82.87c.95,0,1.9,0,2.85,0Z"/>
            <path class="cls-2" d="m64.21,8.57l-1.35,3.89c-.36,1.02-.95,1.65-1.26,1.99l-.1.11c-2.34,2.69-9.14,10.51-9.14,10.51l2.49-.27-6.51,5.34.03,1.26-1.7.18-.9,1.03c-1.61,1.84-3.22,3.69-4.81,5.55l.39.06-2.38,2.51h.16c1.98,0,3.96,0,5.94,0,0-.82,0-1.64,0-2.44v-3.42s1.45-.85,1.45-.85c.52-.3,1.1-.46,1.67-.46.87,0,1.65.33,2.32.99l13.51,10.79c1.01.77,1.5,1.68,1.51,2.72,0,.73-.23,1.8-1.41,2.74-3.33,2.64-6.64,5.29-9.96,7.94l-3.95,3.16c-.39.31-.74.45-.9.51l-2.15,1-1.38-1.91c-.87-1.14-.76-2.33-.72-2.78,0,0,0,0,0,0,0,0,0,0,0,0-.02-1.09-.03-2.17-.04-3.26-.49,0-.99,0-1.48.02-.56,0-1.12.02-1.68.02-4.53,0-8.96-.01-13.41-.01H6.46s10.35-11.99,10.35-11.99l2.51-2.86c1.86-2.12,3.72-4.24,5.58-6.38,3.17-3.64,6.34-7.29,9.5-10.94-1.52,0-3.03,0-4.55,0-3.26,0-6.52,0-9.78.02h-.01c-.49,0-1.84-.01-2.89-1.08-1.06-1.08-1.03-2.45-1.02-2.9.05-2.27.05-4.52,0-6.7-.01-.46-.05-1.86,1.02-2.95,1.07-1.1,2.45-1.1,2.91-1.1,4.98.02,9.93.02,14.88.02h11.94c.22,0,.44-.02.67-.03l.55-.02h16.09m0-1.96h-16.09s-.06,0-.09,0l-.55.02s-.06,0-.07,0c-.17,0-.34.02-.51.02h-11.94c-4.95,0-9.9,0-14.88-.02-1.77,0-3.22.57-4.31,1.69-1.09,1.12-1.62,2.59-1.58,4.37.05,2.14.05,4.37,0,6.61-.04,1.75.49,3.2,1.57,4.32,1.08,1.11,2.53,1.67,4.28,1.67,3.28-.02,6.54-.02,9.8-.02h.27c-2.23,2.57-4.46,5.14-6.69,7.71-1.85,2.13-3.71,4.25-5.57,6.37l-2.51,2.86-10.36,12.01c-.5.58-.62,1.4-.3,2.09.32.7,1.01,1.14,1.78,1.14h22.02c4.45,0,8.88,0,13.41,0,.41,0,.82,0,1.23-.01,0,.39.01.79.02,1.18-.06.67-.15,2.37,1.1,4.03l1.37,1.89c.38.52.97.81,1.59.81.28,0,.56-.06.83-.18l2.1-.98c.24-.1.76-.32,1.33-.77l3.96-3.16c3.31-2.65,6.63-5.3,9.95-7.93,1.4-1.11,2.17-2.63,2.15-4.29-.01-1.16-.41-2.83-2.28-4.26l-13.4-10.71c-.48-.46-1.02-.81-1.59-1.06.07-.21.11-.44.1-.68v-.3s5.76-4.73,5.76-4.73c.67-.55.9-1.47.56-2.27-.08-.2-.2-.39-.34-.54,2.18-2.5,5.21-5.99,6.64-7.64l.08-.08c.39-.41,1.19-1.27,1.68-2.68l1.35-3.89c.21-.6.11-1.26-.25-1.77-.37-.52-.96-.82-1.59-.82h0Z"/>
          </g>
          <g>
            <path class="cls-3" d="m19.03,45.43c2.69-3.08,5.4-6.15,8.08-9.23,4.41-5.07,8.8-10.14,13.2-15.21.12-.14.23-.28.35-.43-.34-.28-.69-.15-1.02-.15-6.53,0-13.06-.02-19.59.01-.79,0-.99-.22-.97-.99.05-2.28.05-4.56,0-6.84-.02-.8.16-1.05,1.01-1.04,8.94.04,17.87.02,26.81.02.4,0,.81-.03,1.21-.05,3.95,0,7.91,0,11.97,0-.19.55-.54.82-.81,1.14-4.32,4.97-8.64,9.94-12.96,14.91-.26.3-.49.65-.73.97-.14.03-.23.11-.22.27,0,0,.01,0,.01,0-.25.02-.36.24-.49.39-2.27,2.61-4.55,5.21-6.8,7.84-.9,1.06-1.95,2-2.66,3.22,0,0,0,0,0,0-.13-.02-.19.06-.23.16-.92,1.04-1.84,2.08-2.77,3.12.26.27.52.16.74.16,4.66,0,9.32,0,13.97.02.69,0,.9-.14.88-.86-.05-2.09-.02-4.18-.02-6.27.3-.17.42.08.57.2,4.54,3.62,9.08,7.25,13.62,10.88.33.27.67.43.11.87-4.65,3.69-9.28,7.4-13.92,11.1-.07.05-.16.08-.25.12-.24-.32-.11-.67-.12-.99-.03-2.03-.05-4.05-.07-6.08-2.05-.22-4.11-.08-6.16-.09-9.57-.02-19.13,0-28.94,0,2.13-2.47,4.15-4.81,6.17-7.15Z"/>
            <path class="cls-2" d="m48.16,60.21c-.16,0-.32-.06-.41-.17-.29-.39-.26-.8-.23-1.07,0-.07.01-.14.01-.21-.03-1.53-.04-3.06-.05-4.59v-1.05c-1.32-.11-2.66-.08-3.95-.06-.58.01-1.17.02-1.73.02-6.99-.01-13.97,0-21.05,0h-7.89c-.19,0-.36-.11-.44-.28s-.05-.38.07-.52l6.17-7.15s0,0,0,0l2.49-2.85c1.86-2.13,3.73-4.25,5.58-6.38,3.27-3.76,6.53-7.52,9.79-11.28l3.21-3.71s-.07,0-.1,0h-1.51c-6.03,0-12.05-.02-18.08.01-.38,0-.83-.04-1.14-.35-.3-.31-.33-.75-.32-1.14.05-2.31.05-4.6,0-6.82-.01-.43.02-.88.33-1.19.31-.32.74-.35,1.18-.36,7.45.03,14.89.02,22.34.02h4.47c.27,0,.53-.02.8-.03l.39-.02h11.99c.16,0,.31.08.4.21s.12.29.06.44c-.18.53-.49.85-.73,1.11-.06.06-.11.12-.17.18-2.34,2.69-4.68,5.38-7.02,8.07l-5.94,6.83c-.17.2-.32.41-.47.62l-.23.32c-.04.05-.09.09-.14.13-.03.08-.08.16-.15.21-.08.06-.17.1-.27.11,0,.01-.04.06-.07.1-.03.04-.07.09-.1.13l-1.33,1.52c-1.83,2.1-3.66,4.2-5.47,6.32-.27.32-.56.63-.84.94-.65.71-1.27,1.37-1.74,2.16-.02.05-.05.09-.09.13-.06.06-.12.1-.19.13,0,0-.01.02-.02.02l-2.2,2.48h4.46c3.1,0,6.21,0,9.32.02.26,0,.36-.03.38-.04,0,0,.02-.08.01-.33-.04-1.51-.03-3.04-.03-4.52v-1.75c0-.17.1-.33.25-.42.37-.22.74-.16,1.07.19l13.76,11c.21.16.5.38.5.76,0,.37-.28.63-.49.8-3.33,2.64-6.65,5.29-9.96,7.94l-3.95,3.16c-.1.08-.2.12-.28.15-.08.04-.17.05-.26.05Zm-3.01-8.15c.95,0,1.91.03,2.86.13.25.03.44.23.44.48v1.49c.03,1.53.04,3.05.07,4.58,0,.05,0,.1,0,.14l3.53-2.8c3.32-2.65,6.64-5.31,9.97-7.95,0,0,0,0,.01,0,0,0-.01,0-.02-.01l-.11-.08-13.39-10.7v1c-.01,1.47-.02,3,.02,4.49,0,.36-.02.76-.3,1.04-.28.29-.68.33-1.07.32-3.1-.02-6.21-.02-9.31-.02h-4.66s-.1,0-.1,0c-.22.02-.63.06-.99-.32-.18-.18-.18-.47-.01-.66l2.72-3.06c.08-.17.2-.28.34-.34.51-.81,1.15-1.5,1.77-2.18.28-.3.55-.6.82-.91,1.81-2.12,3.64-4.22,5.47-6.32l1.39-1.6c.08-.11.2-.26.39-.37.07-.12.17-.22.31-.28l.14-.19c.17-.24.34-.47.53-.69l5.94-6.83c2.34-2.69,4.68-5.38,7.02-8.07.06-.07.13-.14.19-.21.04-.04.07-.08.11-.12l-11.46.02c-.28.02-.57.03-.85.03h-4.47c-7.45,0-14.89.01-22.34-.02-.44,0-.47.06-.47.06,0,0-.06.08-.05.48.05,2.23.05,4.54,0,6.86,0,.35.04.43.05.43,0,0,.07.04.43.05,6.03-.03,12.06-.02,18.09-.01h1.51c.06,0,.13,0,.19-.01.29-.02.72-.06,1.14.27.21.17.24.48.07.69l-.12.14c-.08.11-.16.21-.25.3l-3.41,3.93c-3.26,3.76-6.53,7.53-9.79,11.28-1.86,2.13-3.72,4.26-5.59,6.39l-7.96,9.18h6.82c7.08,0,14.07,0,21.06,0,.57,0,1.14,0,1.71-.02.54,0,1.08-.02,1.63-.02Z"/>
          </g>
        </g>
      </g>
    </symbol>
  </defs>
  <use width="72" height="72" xlink:href="#Nouveau_symbole_95"/>
</svg>