<?xml version="1.0" encoding="UTF-8"?>
<svg id="Calque_1" data-name="Calque 1" xmlns="http://www.w3.org/2000/svg" viewBox="0 0 72 72">
  <defs>
    <style>
      .cls-1 {
        fill: #6a6a6a;
        opacity: 0;
      }

      .cls-1, .cls-2, .cls-3, .cls-4 {
        stroke-width: 0px;
      }

      .cls-2 {
        fill: #010101;
      }

      .cls-3 {
        fill: #fff;
      }

      .cls-4 {
        fill: #e72b54;
      }
    </style>
  </defs>
  <g>
    <polygon class="cls-4" points="20.51 63.43 20.51 55.94 18.16 63.43 12.11 63.43 9.76 55.95 9.76 63.43 2.98 63.43 2.98 44.23 12.45 44.23 15.33 54.14 18.22 44.23 27.69 44.23 27.69 63.43 20.51 63.43"/>
    <path class="cls-4" d="m41.83,63.43l-.95-3.37h-4.81l-.94,3.37h-7.22l6.34-19.2h8.86l6.34,19.2h-7.62Zm-2.21-7.7l-1.15-4.02-1.13,4.02h2.28Z"/>
    <polygon class="cls-4" points="62.02 63.43 58.51 58.16 54.92 63.43 47.26 63.43 54.31 53.64 47.56 44.23 55.82 44.23 59.03 49.07 62.33 44.23 69.98 44.23 63.24 53.64 70.28 63.43 62.02 63.43"/>
  </g>
  <rect class="cls-1" width="72" height="72"/>
  <g>
    <polygon class="cls-2" points="12.82 42.9 12.82 29.36 9.74 29.36 9.74 42.9 3.01 42.9 3.01 10.8 9.74 10.8 9.74 23.06 12.82 23.06 12.82 10.8 19.55 10.8 19.55 42.9 12.82 42.9"/>
    <path class="cls-2" d="m28.91,43.33c-5.2,0-8.18-3.12-8.18-8.57v-15.82c0-5.44,2.98-8.57,8.18-8.57s8.18,3.12,8.18,8.57v15.82c0,5.44-2.98,8.57-8.18,8.57Zm0-26.66c-.73,0-1.45.15-1.45,1.97v16.43c0,1.81.72,1.97,1.45,1.97s1.45-.15,1.45-1.97v-16.43c0-1.81-.72-1.97-1.45-1.97Z"/>
    <polygon class="cls-2" points="38.27 42.9 38.27 10.8 45 10.8 45 36.6 52.78 36.6 52.78 42.9 38.27 42.9"/>
    <path class="cls-2" d="m53.06,42.9V10.8h8.22c5.27,0,8.05,2.92,8.05,8.44v15.22c0,5.52-2.78,8.44-8.05,8.44h-8.22Zm8.14-6.3c.68,0,1.41-.15,1.41-1.92v-15.65c0-1.78-.73-1.92-1.41-1.92h-1.41v19.5h1.41Z"/>
  </g>
  <g>
    <path class="cls-4" d="m4.01,41.9V11.8h4.73v12.25h5.07v-12.25h4.73v30.1h-4.73v-13.54h-5.07v13.54h-4.73Z"/>
    <path class="cls-4" d="m21.73,18.94c0-4.82,2.54-7.57,7.18-7.57s7.18,2.75,7.18,7.57v15.82c0,4.82-2.54,7.57-7.18,7.57s-7.18-2.75-7.18-7.57v-15.82Zm9.63-.3c0-1.98-.82-2.97-2.45-2.97s-2.45.99-2.45,2.97v16.43c0,1.98.82,2.97,2.45,2.97s2.45-.99,2.45-2.97v-16.43Z"/>
    <path class="cls-4" d="m39.27,41.9V11.8h4.73v25.8h7.78v4.3h-12.51Z"/>
    <path class="cls-4" d="m54.06,41.9V11.8h7.22c4.69,0,7.05,2.49,7.05,7.44v15.22c0,4.94-2.37,7.44-7.05,7.44h-7.22Zm4.73-4.3h2.41c1.59,0,2.41-.99,2.41-2.92v-15.65c0-1.94-.82-2.92-2.41-2.92h-2.41v21.5Z"/>
  </g>
  <g>
    <path class="cls-3" d="m3.98,62.43v-17.2h7.71l3.64,12.48,3.63-12.48h7.72v17.2h-5.18v-13.02l-4.09,13.02h-4.58l-4.08-13.02v13.02H3.98Z"/>
    <path class="cls-3" d="m42.58,62.43l-.94-3.37h-6.32l-.94,3.37h-5.08l5.68-17.2h7.42l5.68,17.2h-5.48Zm-6.57-5.7h4.93l-2.49-8.67-2.44,8.67Z"/>
    <path class="cls-3" d="m49.22,62.43l6.32-8.8-6.03-8.4h5.78l3.73,5.63,3.84-5.63h5.18l-6.02,8.4,6.32,8.8h-5.78l-4.03-6.07-4.13,6.07h-5.18Z"/>
  </g>
</svg>